<svg width="24" height="24" viewBox="0 0 24 24" fill="none" xmlns="http://www.w3.org/2000/svg">
<circle cx="12" cy="12" r="12" fill="#1777EE"/>
<path d="M11.8929 8.77795C12.4849 8.77795 13.0769 8.77795 13.6689 8.77795C13.8842 8.77795 14.0456 8.83177 14.2071 8.99322C15.0681 10.0157 15.8754 11.0921 16.575 12.2761C17.0594 13.1371 17.4899 13.9982 17.7052 15.0207C17.8128 15.7203 17.8128 16.3661 17.4899 17.0119C17.2208 17.5501 16.7365 17.9268 16.1983 18.1959C15.4987 18.5726 14.6914 18.7341 13.8842 18.8417C12.9155 18.9493 11.9468 19.0032 10.9242 18.9493C9.84791 18.8955 8.77157 18.7879 7.80287 18.3035C7.10325 17.9806 6.51126 17.5501 6.18836 16.7967C5.91927 16.1509 5.97309 15.5051 6.13454 14.8593C6.40363 13.7829 6.88798 12.868 7.42615 11.9531C8.07195 10.9306 8.82539 9.96193 9.57882 9.04704C9.68646 8.88559 9.90172 8.83177 10.0632 8.83177C10.709 8.77795 11.301 8.77795 11.8929 8.77795ZM12.162 12.599C12.3773 12.6528 12.4311 12.7604 12.4849 12.9219C12.5926 13.2448 12.5926 13.2448 12.9155 13.2448C12.9693 13.2448 12.9693 13.2448 13.0231 13.2448C13.2922 13.2448 13.346 13.1909 13.2922 12.9219C13.1846 12.3837 12.8617 12.007 12.2697 11.8993C12.162 11.8993 12.1082 11.8455 12.1082 11.7379C12.1082 11.5226 12.1082 11.5226 11.8929 11.5226C11.8391 11.5226 11.8391 11.5226 11.7853 11.5226C11.57 11.5226 11.57 11.5226 11.57 11.7379C11.57 11.8455 11.5162 11.8993 11.4086 11.8993C11.2471 11.9532 11.0319 12.007 10.8704 12.1146C10.1708 12.599 10.1708 13.6753 10.8704 14.1058C11.0319 14.2135 11.2471 14.2673 11.4624 14.3211C11.57 14.3749 11.6239 14.3749 11.6239 14.4825C11.6239 14.7516 11.6239 15.0207 11.6239 15.2898C11.6239 15.3974 11.57 15.4512 11.57 15.5589C11.4624 15.5051 11.3548 15.4512 11.301 15.3974C11.2471 15.3436 11.2471 15.2898 11.1933 15.1822C11.1395 15.0745 11.1395 14.9131 11.1395 14.8054C11.1395 14.6978 11.0857 14.6978 11.0319 14.6978C10.8704 14.6978 10.6552 14.6978 10.4937 14.6978C10.3861 14.6978 10.3861 14.7516 10.3323 14.8593C10.2784 15.6665 10.6552 16.1509 11.4086 16.3123C11.5162 16.3123 11.57 16.3661 11.57 16.5276C11.57 16.9581 11.57 16.9581 12.0006 16.9581C12.1082 16.9581 12.162 16.9043 12.162 16.7967C12.162 16.6352 12.162 16.5276 12.162 16.3661C12.2158 16.3661 12.2697 16.3123 12.3235 16.3123C12.9155 16.1509 13.2922 15.828 13.3998 15.236C13.5613 14.5364 13.2922 14.052 12.6464 13.8367C12.5388 13.7829 12.3773 13.7829 12.2697 13.7291C12.2158 13.7291 12.162 13.6753 12.162 13.6215C12.162 13.2448 12.162 12.9219 12.162 12.599Z" fill="white"/>
<path d="M11.9467 7.80935C11.5162 7.80935 11.0318 7.80935 10.6013 7.80935C10.3322 7.80935 10.117 7.70172 10.0093 7.48645C9.57879 6.57157 9.14825 5.7105 8.77154 4.84943C8.6639 4.63416 8.6639 4.58034 8.87917 4.47271C9.79406 4.14981 10.6013 4.25744 11.3547 4.90324C11.8391 5.33378 12.4311 5.54905 13.0769 5.44141C13.4536 5.38759 13.8303 5.27996 14.207 5.11851C14.3685 5.01088 14.5838 4.90324 14.7452 4.84943C14.799 4.79561 14.9067 4.79561 14.9605 4.84943C15.0143 4.90324 15.0143 5.01088 14.9605 5.06469C14.5838 5.87195 14.207 6.73302 13.8303 7.54027C13.7227 7.75554 13.5074 7.80935 13.2922 7.86317C12.8078 7.80935 12.3773 7.80935 11.9467 7.80935Z" fill="white"/>
<path d="M12.1084 14.5361C12.3775 14.5899 12.5389 14.7514 12.5928 14.9667C12.6466 15.2358 12.4851 15.5048 12.2698 15.5587C12.1622 15.6125 12.1084 15.5587 12.1084 15.451C12.1084 15.1819 12.1084 14.859 12.1084 14.5361Z" fill="white"/>
<path d="M11.5701 13.5135C11.301 13.4597 11.1934 13.2444 11.1934 13.0292C11.1934 12.8139 11.3548 12.5986 11.5701 12.5986C11.5701 12.9215 11.5701 13.1906 11.5701 13.5135Z" fill="white"/>
</svg>
